<svg xmlns="http://www.w3.org/2000/svg" width="1252" height="503" viewBox="0 0 1252 503" fill="none"><g id="Ativo 1 1" clip-path="url(#clip0_1_39)"><g id="Camada 1"><g id="Group"><g id="simbolo"><path id="azul" d="M238.074 24.1723L92.1269 172.526C83.9466 180.837 77.847 191.01 74.6667 202.236C72.1904 210.999 70.4025 222.019 71.3835 234.355C71.4231 234.894 71.4943 235.425 71.5971 235.956C72.4357 240.416 77.1192 259.803 98.2423 283.318C119.65 307.134 175.868 362.648 188.281 374.873C190.116 376.68 192.41 377.947 194.91 378.549C198.755 379.484 204.736 380.348 210.559 378.866C212.98 378.248 215.187 376.949 216.951 375.182L348.35 243.593C349.718 242.222 350.786 240.598 351.498 238.792C354.196 231.962 359.465 214.699 348.895 204.114L267.56 122.66C262.117 117.209 262.03 108.391 267.37 102.829L289.45 79.8693C293.034 76.1456 298.414 74.4977 303.342 76.0268C305.162 76.5893 307.005 77.6034 308.682 79.2751C315.383 85.9857 395.809 165.182 410.548 183.974C410.548 183.974 426.632 202.767 422.613 232.295C422.613 232.295 419.955 257.537 400.129 274.983C399.923 275.157 399.725 275.347 399.536 275.538L239.894 436.71C235.709 440.933 230.843 444.451 225.408 446.851C223.375 447.755 221.468 448.412 220.211 448.412H186.516C181.429 448.412 176.414 447.271 171.857 445.005C166.904 442.549 160.267 438.596 153.598 432.67C153.329 432.432 153.067 432.178 152.814 431.917L28.536 304.868C25.4189 301.683 22.7054 298.125 20.4823 294.259C9.7467 275.585 -16.5979 219.492 15.1422 162.504C15.1422 162.504 24.525 146.397 41.9456 128.943L160.678 10.0381C161.153 9.56276 161.659 9.11909 162.197 8.71503C165.188 6.48873 175.005 0.0871429 189.388 0.0871429H228.003C240.543 0.0871429 246.872 15.2275 238.074 24.1723Z" fill="url(#paint0_linear_1_39)"></path><path id="verde" d="M252.37 436.259L412.929 274.222C413.151 274.001 413.357 273.763 413.546 273.517C416.861 269.168 445.041 230.14 423 187.397C422.747 186.914 422.439 186.454 422.091 186.042C415.659 178.405 352.005 103.249 309.996 69.5856C309.062 68.8408 307.97 68.3417 306.8 68.1436C301.736 67.28 287.488 66.2659 276.665 79.1087C276.571 79.2196 276.468 79.3306 276.365 79.4336L152.704 204.605C152.102 205.215 151.62 205.92 151.264 206.705C149.207 211.284 143.076 227.581 152.838 241.2C153.075 241.533 153.344 241.842 153.629 242.127L241.611 330.236C243.723 332.352 244.356 335.584 243.042 338.27C243.027 338.294 243.019 338.325 243.003 338.349C241.848 340.655 217.908 363.805 211.215 370.254C210.068 371.363 208.597 372.045 207.007 372.203C205.219 372.385 202.758 372.568 200.701 372.488C198.913 372.417 197.22 371.712 195.947 370.46C184.096 358.893 104.975 281.29 88.8595 256.468C88.8595 256.468 66.2491 219.167 92.5778 184.378C92.7756 184.117 92.9971 183.863 93.2265 183.626L267.552 6.38574C268.256 5.67269 269.086 5.12602 270.012 4.75365C273.659 3.30379 284.205 0.0792257 306 0.0792257C306 0.0792257 328.785 -1.25972 339.513 6.7898C339.513 6.7898 456.782 120.228 472.082 138.181C472.169 138.284 472.256 138.379 472.351 138.482C474.835 141.049 509.431 177.953 503.063 234.807C503.047 234.918 503.039 235.029 503.039 235.147C502.896 237.675 500.594 269.786 473.894 305.676C473.672 305.977 473.419 306.262 473.158 306.524L337.266 441.282C336.91 441.63 336.538 441.939 336.119 442.209C334.022 443.563 327.25 447.263 314.394 448.388C314.165 448.404 313.936 448.42 313.706 448.42H257.433C251.096 448.42 247.916 440.759 252.378 436.259" fill="url(#paint1_linear_1_39)"></path></g><g id="Group_2"><path id="Vector" d="M931.292 392.707C939.196 384.689 955.778 347.849 972.605 308.14L1084.9 43.2266H1095.63L1229.94 349.251C1238.88 369.525 1248.26 385.26 1251.66 391.598C1251.82 391.891 1252.18 392.707 1251.88 392.707C1250.88 392.707 1250.16 392.715 1248.43 392.707C1245 392.684 1239.53 392.644 1233.5 392.707C1224.07 392.802 1211.04 392.691 1201.51 392.707C1193.55 392.723 1188.5 392.89 1185.49 392.707C1183.87 392.612 1183.05 387.542 1175.96 362.854C1174.07 356.247 1171.76 349.211 1168.6 341.867L1147.02 289.941H1004.96C990.967 325.261 982.605 346.811 979.883 354.591C977.162 362.371 976.545 368.598 975.801 373.083C974.092 383.366 973.823 382.344 972.059 396.391C969.876 396.748 962.589 396.993 950.612 396.748C943.286 396.597 934.702 396.613 930.707 396.748C929.829 396.78 929.37 396.463 929.346 395.884C929.314 395.171 929.947 394.062 931.284 392.707H931.292ZM1137.93 268.066L1076.16 119.404L1014.1 268.066H1137.93Z" fill="#F5F7FA"></path><g id="Group_3"><path id="Vector_2" d="M583.156 415.184C583.267 418.393 580.91 420.968 577.168 420.968C573.853 420.968 571.503 418.401 571.503 415.184C571.503 411.968 573.963 409.298 577.381 409.298C580.799 409.298 583.156 411.865 583.156 415.184ZM572.674 481.577V429.746H582.08V481.577H572.674Z" fill="#F5F7FA"></path><path id="Vector_3" d="M610.529 443.777C610.529 438.422 610.419 434.032 610.102 429.746H618.338L618.765 438.097H619.089C621.977 433.169 626.787 428.566 635.339 428.566C642.396 428.566 647.744 432.852 649.991 438.952H650.204C651.81 436.061 653.844 433.811 655.98 432.202C659.081 429.849 662.507 428.566 667.419 428.566C674.263 428.566 684.421 433.066 684.421 451.05V481.569H675.228V452.223C675.228 442.264 671.597 436.267 664.002 436.267C658.654 436.267 654.484 440.228 652.878 444.831C652.451 446.115 652.127 447.834 652.127 449.545V481.561H642.934V450.504C642.934 442.256 639.295 436.259 632.135 436.259C626.257 436.259 621.977 440.973 620.482 445.679C619.944 447.073 619.73 448.674 619.73 450.282V481.553H610.537V443.754L610.529 443.777Z" fill="#F5F7FA"></path><path id="Vector_4" d="M755.844 467.443C755.844 472.798 755.955 477.513 756.271 481.577H747.933L747.395 473.115H747.181C744.721 477.291 739.27 482.749 730.069 482.749C721.944 482.749 712.213 478.249 712.213 460.051V429.746H721.62V458.442C721.62 468.29 724.618 474.938 733.17 474.938C739.475 474.938 743.866 470.548 745.575 466.373C746.113 464.979 746.429 463.267 746.429 461.556V429.754H755.836V467.451L755.844 467.443Z" fill="#F5F7FA"></path><path id="Vector_5" d="M784.285 443.777C784.285 438.422 784.174 434.032 783.858 429.746H792.196L792.734 438.311H792.948C795.511 433.383 801.5 428.566 810.06 428.566C817.227 428.566 828.343 432.852 828.343 450.623V481.569H818.936V451.692C818.936 443.342 815.835 436.378 806.959 436.378C800.756 436.378 795.946 440.767 794.34 446.02C793.913 447.2 793.699 448.8 793.699 450.409V481.569H784.293V443.769L784.285 443.777Z" fill="#F5F7FA"></path><path id="Vector_6" d="M866.942 415.184C867.053 418.393 864.695 420.968 860.953 420.968C857.638 420.968 855.289 418.401 855.289 415.184C855.289 411.968 857.749 409.298 861.167 409.298C864.584 409.298 866.942 411.865 866.942 415.184ZM856.459 481.577V429.746H865.866V481.577H856.459Z" fill="#F5F7FA"></path><path id="Vector_7" d="M888.429 476.118L911.846 445.6C914.093 442.819 916.229 440.355 918.587 437.566V437.352H890.573V429.746H930.034L929.932 435.633L906.831 465.723C904.695 468.615 902.551 471.182 900.201 473.86V474.074H930.462V481.569H888.437V476.11L888.429 476.118Z" fill="#F5F7FA"></path><path id="Vector_8" d="M981.568 481.585L980.817 475.048H980.493C977.605 479.121 972.043 482.757 964.67 482.757C954.188 482.757 948.847 475.365 948.847 467.87C948.847 455.345 959.971 448.491 979.962 448.594V447.525C979.962 443.239 978.784 435.53 968.198 435.53C963.388 435.53 958.357 437.027 954.726 439.388L952.589 433.177C956.869 430.396 963.072 428.574 969.591 428.574C985.413 428.574 989.266 439.388 989.266 449.775V469.154C989.266 473.654 989.48 478.043 990.121 481.577H981.568V481.585ZM980.176 455.131C969.907 454.917 958.254 456.739 958.254 466.801C958.254 472.901 962.32 475.793 967.13 475.793C973.863 475.793 978.143 471.507 979.638 467.118C979.963 466.151 980.176 465.082 980.176 464.123V455.131Z" fill="#F5F7FA"></path><path id="Vector_9" d="M1054.17 479.652C1051.92 480.832 1047 482.433 1040.8 482.654L1038.02 486.941C1041.98 487.479 1045.51 490.26 1045.51 494.333C1045.51 500.647 1040.27 503.008 1034.38 503.008C1031.71 503.008 1028.93 502.255 1027.11 501.186L1028.72 496.583C1030.43 497.652 1032.57 498.191 1034.5 498.191C1036.84 498.191 1039.09 497.335 1039.09 494.76C1038.98 491.979 1035.78 490.688 1030.75 490.26L1035.25 482.44C1021.99 480.729 1013.54 470.659 1013.54 456.2C1013.54 440.244 1024.45 428.677 1041.34 428.677C1046.9 428.677 1051.82 430.071 1054.38 431.355L1052.25 438.636C1050 437.352 1046.47 436.172 1041.34 436.172C1029.47 436.172 1023.06 444.95 1023.06 455.765C1023.06 467.76 1030.75 475.144 1041.02 475.144C1046.37 475.144 1049.9 473.749 1052.57 472.577L1054.18 479.644L1054.17 479.652Z" fill="#F5F7FA"></path><path id="Vector_10" d="M1124.2 455.242C1124.2 474.407 1110.94 482.765 1098.43 482.765C1084.42 482.765 1073.62 472.482 1073.62 456.097C1073.62 438.746 1084.96 428.574 1099.29 428.574C1113.62 428.574 1124.2 439.388 1124.2 455.242ZM1083.14 455.78C1083.14 467.134 1089.66 475.698 1098.86 475.698C1108.06 475.698 1114.58 467.237 1114.58 455.566C1114.58 446.788 1110.2 435.649 1099.07 435.649C1087.95 435.649 1083.14 445.932 1083.14 455.78ZM1085.7 420.873C1085.49 413.909 1088.38 409.733 1092.98 409.733C1095.32 409.733 1097.14 410.7 1099.6 412.086C1101.31 413.053 1102.81 413.909 1104.1 413.909C1105.81 413.909 1106.88 412.942 1107.1 409.305H1112.12C1112.22 416.483 1109.77 420.12 1104.74 420.12C1102.49 420.12 1100.46 419.153 1098.21 417.981C1096.08 416.697 1094.9 416.056 1093.62 416.056C1091.91 416.056 1091.05 417.878 1090.84 420.873H1085.7Z" fill="#F5F7FA"></path><path id="Vector_11" d="M1154.15 457.381C1154.36 470.121 1162.48 475.373 1171.9 475.373C1178.64 475.373 1182.7 474.193 1186.23 472.695L1187.83 479.446C1184.52 480.943 1178.85 482.654 1170.62 482.654C1154.68 482.654 1145.17 472.157 1145.17 456.525C1145.17 440.893 1154.36 428.574 1169.44 428.574C1186.34 428.574 1190.82 443.46 1190.82 452.992C1190.82 454.917 1190.61 456.422 1190.5 457.381H1154.14H1154.15ZM1181.73 450.631C1181.84 444.633 1179.27 435.316 1168.69 435.316C1159.17 435.316 1155 444.094 1154.25 450.631H1181.73Z" fill="#F5F7FA"></path><path id="Vector_12" d="M1214.02 471.943C1216.79 473.765 1221.72 475.69 1226.42 475.69C1233.27 475.69 1236.48 472.26 1236.48 467.981C1236.48 463.481 1233.8 461.017 1226.86 458.45C1217.55 455.131 1213.17 449.989 1213.17 443.777C1213.17 435.427 1219.9 428.574 1231.03 428.574C1236.26 428.574 1240.87 430.071 1243.75 431.782L1241.4 438.636C1239.37 437.352 1235.62 435.633 1230.81 435.633C1225.25 435.633 1222.15 438.849 1222.15 442.7C1222.15 446.986 1225.25 448.911 1231.98 451.478C1240.96 454.909 1245.57 459.401 1245.57 467.11C1245.57 476.213 1238.51 482.639 1226.22 482.639C1220.55 482.639 1215.31 481.244 1211.68 479.105L1214.03 471.927L1214.02 471.943Z" fill="#F5F7FA"></path></g><path id="Vector_13" d="M658.132 63.1444C619.105 63.1444 604.098 90.6997 604.098 117.257C604.098 153.329 628.108 170.87 667.641 190.915C707.166 210.959 753.7 234.007 753.7 290.623C753.7 343.737 708.669 385.822 644.129 385.822C616.613 385.822 588.093 377.305 567.081 370.294C563.576 357.768 564.968 366.689 561.464 343.143C561.464 343.143 599.596 367.283 651.13 367.283C689.152 367.283 711.169 343.737 711.169 307.657C711.169 271.576 685.149 253.045 646.629 232.501C614.105 214.968 564.074 190.416 564.074 133.292C564.074 85.1934 599.596 45.6113 665.639 45.6113C695.156 45.6113 723.677 53.13 734.183 54.1283C736.184 72.1684 733.131 49.3588 737.134 81.9292C737.134 81.9292 702.166 63.1523 658.132 63.1523V63.1444Z" fill="#F5F7FA"></path><path id="Vector_14" d="M952.281 253.425C952.439 259.771 953.65 266.141 942.938 285.52C932.226 304.899 920.177 323.003 906.791 339.823C917.622 352.499 927.297 361.365 935.818 366.428C944.338 371.49 952.914 374.017 961.561 374.017C970.208 374.017 977.075 371.736 982.921 367.164C988.76 362.593 992.898 355.859 995.334 346.961L1002.09 351.897C997.589 369.082 990.342 381.758 980.366 389.926C970.382 398.087 958.76 402.175 945.493 402.175C935.509 402.175 925.383 399.465 915.098 394.038C904.813 388.619 893.587 379.445 881.412 366.523C866.317 379.928 852.718 389.221 840.613 394.403C828.501 399.584 815.574 402.175 801.816 402.175C781.738 402.175 765.788 396.811 753.985 386.084C742.181 375.356 736.279 362.561 736.279 347.69C736.279 332.819 741.572 318.225 752.165 303.537C762.75 288.848 782.655 273.644 811.864 257.917C806.144 245.241 802.251 234.854 800.179 226.749C798.106 218.644 797.078 210.872 797.078 203.441C797.078 182.596 804.744 166.695 820.084 155.722C832.014 147.189 845.582 142.927 860.795 142.927C876.008 142.927 887.084 147.221 896.214 155.817C905.343 164.413 909.908 174.982 909.908 187.54C909.908 200.097 905.494 211.799 896.673 221.544C887.844 231.297 872.235 241.961 849.846 253.536C865.304 281.084 881.428 306.31 898.223 329.222C919.639 303.624 951.854 235.987 952.289 253.433L952.281 253.425ZM871.926 355.906C855.858 333.968 844.727 317.94 838.517 307.823C832.306 297.706 825.495 285.156 818.074 270.158C803.47 278.572 792.481 287.834 785.124 297.951C777.758 308.068 774.079 319.041 774.079 330.862C774.079 343.903 778.28 355.359 786.674 365.231C795.068 375.103 806.389 380.039 820.629 380.039C828.295 380.039 835.692 378.518 842.813 375.467C849.933 372.425 859.64 365.897 871.934 355.906H871.926ZM843.627 241.644C858.714 234.45 870.004 226.29 877.496 217.147C884.988 208.004 888.722 197.831 888.722 186.613C888.722 177.834 886.016 170.585 880.597 164.857C875.178 159.129 868.453 156.261 860.423 156.261C849.838 156.261 841.832 159.945 836.42 167.321C831.001 174.697 828.295 181.914 828.295 188.982C828.295 194.955 829.324 201.626 831.397 209.002C833.462 216.378 837.544 227.256 843.627 241.636V241.644Z" fill="#5BB747"></path></g></g></g></g><defs><linearGradient id="paint0_linear_1_39" x1="211.627" y1="448.42" x2="211.627" y2="0.0871429" gradientUnits="userSpaceOnUse"><stop stop-color="#41B9E5"></stop><stop offset="0.25" stop-color="#08476E"></stop><stop offset="0.7" stop-color="#3BA7D1"></stop><stop offset="1" stop-color="#1D648B"></stop></linearGradient><linearGradient id="paint1_linear_1_39" x1="291.831" y1="448.42" x2="291.831" y2="1.15856e-05" gradientUnits="userSpaceOnUse"><stop stop-color="#5BB747"></stop><stop offset="0.25" stop-color="#418C41"></stop><stop offset="0.71" stop-color="#50A445"></stop><stop offset="1" stop-color="#459242"></stop></linearGradient><clipPath id="clip0_1_39"><rect width="1252" height="503" fill="white"></rect></clipPath></defs></svg>
